<svg xmlns="http://www.w3.org/2000/svg" viewBox="0 0 100 100">
  <circle cx="50" cy="50" r="43" fill="#1B120A" stroke="#C49A50" stroke-width="2.4" />
  <g fill="#C49A50" opacity="0.92">
    <path d="M50,1 L52.5,7.5 L46,7.5 Z" transform="rotate(0 50 50)" />
    <path d="M50,1 L52.5,7.5 L46,7.5 Z" transform="rotate(45 50 50)" />
    <path d="M50,1 L52.5,7.5 L46,7.5 Z" transform="rotate(90 50 50)" />
    <path d="M50,1 L52.5,7.5 L46,7.5 Z" transform="rotate(135 50 50)" />
    <path d="M50,1 L52.5,7.5 L46,7.5 Z" transform="rotate(180 50 50)" />
    <path d="M50,1 L52.5,7.5 L46,7.5 Z" transform="rotate(225 50 50)" />
    <path d="M50,1 L52.5,7.5 L46,7.5 Z" transform="rotate(270 50 50)" />
    <path d="M50,1 L52.5,7.5 L46,7.5 Z" transform="rotate(315 50 50)" />
  </g>
  <circle cx="50" cy="50" r="43" fill="none" stroke="#ECCB86" stroke-width="0.8" opacity="0.55" />
  <path d="M47,19 L53,19 L53,32 L47,32 Z" fill="#C49A50" />
  <path d="M40,23 L60,23 L60,28 L40,28 Z" fill="#C49A50" />
  <path d="M38,38 L62,38 L58,32 L42,32 Z" fill="#FBF3E3" stroke="#C49A50" stroke-width="1.5" stroke-linejoin="round" />
  <path d="M34,55 L66,55 L61,38 L39,38 Z" fill="#FBF3E3" stroke="#C49A50" stroke-width="1.5" stroke-linejoin="round" />
  <path d="M30,63 L70,63 L65,55 L35,55 Z" fill="#FBF3E3" stroke="#C49A50" stroke-width="1.5" stroke-linejoin="round" />
  <path d="M39,38 L58,55 M61,38 L42,55 M35,55 L50,63 M65,55 L50,63" stroke="#C49A50" stroke-width="1" opacity="0.75" fill="none" />
</svg>
